<?xml version="1.0" encoding="UTF-8" standalone="no"?>
<!DOCTYPE svg PUBLIC "-//W3C//DTD SVG 1.1//EN" "http://www.w3.org/Graphics/SVG/1.1/DTD/svg11.dtd">
<svg version="1.1" xmlns="http://www.w3.org/2000/svg" xmlns:xlink="http://www.w3.org/1999/xlink" preserveAspectRatio="xMidYMid meet" viewBox="0 0 640 640" width="640" height="640"><defs><path d="M10.76 62C10.76 63.1 11.66 64 12.76 64C13.4 64 18.5 64 19.14 64C20.24 64 21.14 63.1 21.14 62C21.14 61.7 21.14 60.18 21.14 57.45L10.76 57.45C10.76 60.18 10.76 61.7 10.76 62Z" id="l1gHF87LOg"></path><path d="M44.01 62C44.01 63.1 44.91 64 46.01 64C46.65 64 51.75 64 52.39 64C53.49 64 54.39 63.1 54.39 62C54.39 61.7 54.39 60.18 54.39 57.45L44.01 57.45C44.01 60.18 44.01 61.7 44.01 62Z" id="bwdstosyg"></path><path d="M61.74 15.52C61.74 14.78 61.14 14.19 60.41 14.19C60.3 14.19 59.38 14.19 59.27 14.19C58.7 14.19 58.23 13.72 58.23 13.15C58.23 12.57 58.7 12.11 59.27 12.11C59.38 12.11 60.3 12.11 60.41 12.11C62.29 12.11 63.82 13.64 63.82 15.51C63.82 16.09 63.35 16.55 62.78 16.55C62.2 16.55 61.74 16.09 61.74 15.52Z" id="a45tzXS9B"></path><path d="M64.51 15.33C64.51 15.33 64.51 15.33 64.51 15.33C64.51 22.08 64.51 25.83 64.51 26.58C64.51 26.58 64.51 26.58 64.51 26.58C62.01 26.58 60.62 26.58 60.35 26.58C60.35 26.58 60.35 26.58 60.35 26.58C60.35 19.83 60.35 16.08 60.35 15.33C60.35 15.33 60.35 15.33 60.35 15.33C62.84 15.33 64.23 15.33 64.51 15.33Z" id="anwKOGAnH"></path><path d="M3.41 15.52C3.41 14.78 4.01 14.19 4.74 14.19C4.85 14.19 5.77 14.19 5.88 14.19C6.45 14.19 6.92 13.72 6.92 13.15C6.92 12.57 6.45 12.11 5.88 12.11C5.77 12.11 4.85 12.11 4.74 12.11C2.86 12.11 1.33 13.64 1.33 15.51C1.33 16.09 1.8 16.55 2.37 16.55C2.95 16.55 3.41 16.09 3.41 15.52Z" id="er46Y8qHx"></path><path d="M4.8 15.33C4.8 15.33 4.8 15.33 4.8 15.33C4.8 22.08 4.8 25.83 4.8 26.58C4.8 26.58 4.8 26.58 4.8 26.58C2.3 26.58 0.92 26.58 0.64 26.58C0.64 26.58 0.64 26.58 0.64 26.58C0.64 19.83 0.64 16.08 0.64 15.33C0.64 15.33 0.64 15.33 0.64 15.33C3.14 15.33 4.53 15.33 4.8 15.33Z" id="b2kATE33kx"></path><path d="M9.83 0C7.62 0 5.83 1.79 5.83 4C5.83 6.4 5.83 18.39 5.83 39.98L59.32 39.98C59.32 18.39 59.32 6.4 59.32 4C59.32 1.79 57.53 0 55.32 0C46.22 0 14.38 0 9.83 0Z" id="a3dWHpfvsm"></path><path d="M5.83 54.19C5.83 56.4 7.62 58.19 9.83 58.19C14.38 58.19 50.77 58.19 55.32 58.19C57.53 58.19 59.32 56.4 59.32 54.19C59.32 54.12 59.32 53.75 59.32 53.09L5.83 53.09C5.83 53.75 5.83 54.12 5.83 54.19Z" id="aFaLAGxHG"></path><path d="M59.32 47.34C59.32 47.34 59.32 47.34 59.32 47.34C59.32 50.79 59.32 52.7 59.32 53.08C59.32 53.08 59.32 53.08 59.32 53.08C27.23 53.08 9.4 53.08 5.83 53.08C5.83 53.08 5.83 53.08 5.83 53.08C5.83 49.64 5.83 47.72 5.83 47.34C5.83 47.34 5.83 47.34 5.83 47.34C37.92 47.34 55.75 47.34 59.32 47.34Z" id="ds5AdWx5d"></path><path d="M59.32 38.69C59.32 38.69 59.32 38.69 59.32 38.69C59.32 43.89 59.32 46.77 59.32 47.35C59.32 47.35 59.32 47.35 59.32 47.35C27.23 47.35 9.4 47.35 5.83 47.35C5.83 47.35 5.83 47.35 5.83 47.35C5.83 42.15 5.83 39.27 5.83 38.69C5.83 38.69 5.83 38.69 5.83 38.69C37.92 38.69 55.75 38.69 59.32 38.69Z" id="aQ7NK75eb"></path><path d="M59.32 11.2C59.32 11.2 59.32 11.2 59.32 11.2C59.32 26.19 59.32 34.53 59.32 36.19C59.32 36.19 59.32 36.19 59.32 36.19C27.23 36.19 9.4 36.19 5.83 36.19C5.83 36.19 5.83 36.19 5.83 36.19C5.83 21.2 5.83 12.86 5.83 11.2C5.83 11.2 5.83 11.2 5.83 11.2C37.92 11.2 55.75 11.2 59.32 11.2Z" id="bc7w5Znsi"></path><path d="M34 11.2C34 11.2 34 11.2 34 11.2C34 26.19 34 34.53 34 36.19C34 36.19 34 36.19 34 36.19C32.29 36.19 31.34 36.19 31.15 36.19C31.15 36.19 31.15 36.19 31.15 36.19C31.15 21.2 31.15 12.86 31.15 11.2C31.15 11.2 31.15 11.2 31.15 11.2C32.86 11.2 33.81 11.2 34 11.2Z" id="c2hh1t8pl"></path><path d="M59.32 36.19C59.32 36.19 59.32 36.19 59.32 36.19C59.32 37.69 59.32 38.53 59.32 38.69C59.32 38.69 59.32 38.69 59.32 38.69C27.23 38.69 9.4 38.69 5.83 38.69C5.83 38.69 5.83 38.69 5.83 38.69C5.83 37.19 5.83 36.36 5.83 36.19C5.83 36.19 5.83 36.19 5.83 36.19C37.92 36.19 55.75 36.19 59.32 36.19Z" id="j2r85U26Ub"></path><path d="M11.6 48.65C10.73 48.65 10.03 49.35 10.03 50.22C10.03 51.08 10.73 51.78 11.6 51.78C12.46 51.78 13.16 51.08 13.16 50.22C13.16 49.35 12.46 48.65 11.6 48.65Z" id="a4p6YkLsa"></path><path d="M15.57 48.65C14.71 48.65 14.01 49.35 14.01 50.22C14.01 51.08 14.71 51.78 15.57 51.78C16.44 51.78 17.14 51.08 17.14 50.22C17.14 49.35 16.44 48.65 15.57 48.65Z" id="bYevUwk7d"></path><path d="M49.57 48.65C48.71 48.65 48.01 49.35 48.01 50.22C48.01 51.08 48.71 51.78 49.57 51.78C50.44 51.78 51.14 51.08 51.14 50.22C51.14 49.35 50.44 48.65 49.57 48.65Z" id="a6edNrkzFK"></path><path d="M53.55 48.65C52.69 48.65 51.99 49.35 51.99 50.22C51.99 51.08 52.69 51.78 53.55 51.78C54.41 51.78 55.11 51.08 55.11 50.22C55.11 49.35 54.41 48.65 53.55 48.65Z" id="b5nM5CY7L8"></path><path d="M49.75 40.85C48.55 40.85 47.58 41.82 47.58 43.02C47.58 44.22 48.55 45.19 49.75 45.19C50.14 45.19 53.2 45.19 53.59 45.19C54.79 45.19 55.76 44.22 55.76 43.02C55.76 41.82 54.79 40.85 53.59 40.85C52.82 40.85 50.14 40.85 49.75 40.85Z" id="b3lqtizDxI"></path><path d="M11.25 40.85C10.05 40.85 9.07 41.82 9.07 43.02C9.07 44.22 10.04 45.19 11.25 45.19C11.63 45.19 14.7 45.19 15.08 45.19C16.28 45.19 17.25 44.22 17.25 43.02C17.25 41.82 16.28 40.85 15.08 40.85C14.31 40.85 11.63 40.85 11.25 40.85Z" id="a1leGwpVwn"></path><path d="M16.21 1.75C14.08 1.75 12.36 3.47 12.36 5.6C12.36 7.73 14.08 9.45 16.21 9.45C19.37 9.45 44.65 9.45 47.82 9.45C49.94 9.45 51.67 7.73 51.67 5.6C51.67 3.47 49.94 1.75 47.82 1.75C41.49 1.75 19.37 1.75 16.21 1.75Z" id="caAuWHfnA"></path></defs><g><g><g><use xlink:href="#l1gHF87LOg" opacity="1" fill="#454545" fill-opacity="1"></use><g><use xlink:href="#l1gHF87LOg" opacity="1" fill-opacity="0" stroke="#000000" stroke-width="1" stroke-opacity="0"></use></g></g><g><use xlink:href="#bwdstosyg" opacity="1" fill="#454545" fill-opacity="1"></use><g><use xlink:href="#bwdstosyg" opacity="1" fill-opacity="0" stroke="#000000" stroke-width="1" stroke-opacity="0"></use></g></g><g><use xlink:href="#a45tzXS9B" opacity="1" fill="#cacaca" fill-opacity="1"></use><g><use xlink:href="#a45tzXS9B" opacity="1" fill-opacity="0" stroke="#000000" stroke-width="1" stroke-opacity="0"></use></g></g><g><use xlink:href="#anwKOGAnH" opacity="1" fill="#6f6f6f" fill-opacity="1"></use><g><use xlink:href="#anwKOGAnH" opacity="1" fill-opacity="0" stroke="#000000" stroke-width="1" stroke-opacity="0"></use></g></g><g><use xlink:href="#er46Y8qHx" opacity="1" fill="#cacaca" fill-opacity="1"></use><g><use xlink:href="#er46Y8qHx" opacity="1" fill-opacity="0" stroke="#000000" stroke-width="1" stroke-opacity="0"></use></g></g><g><use xlink:href="#b2kATE33kx" opacity="1" fill="#6f6f6f" fill-opacity="1"></use><g><use xlink:href="#b2kATE33kx" opacity="1" fill-opacity="0" stroke="#000000" stroke-width="1" stroke-opacity="0"></use></g></g><g><use xlink:href="#a3dWHpfvsm" opacity="1" fill="#86daf1" fill-opacity="1"></use><g><use xlink:href="#a3dWHpfvsm" opacity="1" fill-opacity="0" stroke="#000000" stroke-width="1" stroke-opacity="0"></use></g></g><g><use xlink:href="#aFaLAGxHG" opacity="1" fill="#ed6262" fill-opacity="1"></use><g><use xlink:href="#aFaLAGxHG" opacity="1" fill-opacity="0" stroke="#000000" stroke-width="1" stroke-opacity="0"></use></g></g><g><use xlink:href="#ds5AdWx5d" opacity="1" fill="#cd484b" fill-opacity="1"></use><g><use xlink:href="#ds5AdWx5d" opacity="1" fill-opacity="0" stroke="#000000" stroke-width="1" stroke-opacity="0"></use></g></g><g><use xlink:href="#aQ7NK75eb" opacity="1" fill="#f3f3f3" fill-opacity="1"></use><g><use xlink:href="#aQ7NK75eb" opacity="1" fill-opacity="0" stroke="#000000" stroke-width="1" stroke-opacity="0"></use></g></g><g><use xlink:href="#bc7w5Znsi" opacity="1" fill="#6f6f6f" fill-opacity="1"></use><g><use xlink:href="#bc7w5Znsi" opacity="1" fill-opacity="0" stroke="#000000" stroke-width="1" stroke-opacity="0"></use></g></g><g><use xlink:href="#c2hh1t8pl" opacity="1" fill="#454545" fill-opacity="1"></use><g><use xlink:href="#c2hh1t8pl" opacity="1" fill-opacity="0" stroke="#000000" stroke-width="1" stroke-opacity="0"></use></g></g><g><use xlink:href="#j2r85U26Ub" opacity="1" fill="#86daf1" fill-opacity="1"></use><g><use xlink:href="#j2r85U26Ub" opacity="1" fill-opacity="0" stroke="#000000" stroke-width="1" stroke-opacity="0"></use></g></g><g><use xlink:href="#a4p6YkLsa" opacity="1" fill="#f3f3f3" fill-opacity="1"></use><g><use xlink:href="#a4p6YkLsa" opacity="1" fill-opacity="0" stroke="#000000" stroke-width="1" stroke-opacity="0"></use></g></g><g><use xlink:href="#bYevUwk7d" opacity="1" fill="#ffe21f" fill-opacity="1"></use><g><use xlink:href="#bYevUwk7d" opacity="1" fill-opacity="0" stroke="#000000" stroke-width="1" stroke-opacity="0"></use></g></g><g><use xlink:href="#a6edNrkzFK" opacity="1" fill="#ffe21f" fill-opacity="1"></use><g><use xlink:href="#a6edNrkzFK" opacity="1" fill-opacity="0" stroke="#000000" stroke-width="1" stroke-opacity="0"></use></g></g><g><use xlink:href="#b5nM5CY7L8" opacity="1" fill="#f3f3f3" fill-opacity="1"></use><g><use xlink:href="#b5nM5CY7L8" opacity="1" fill-opacity="0" stroke="#000000" stroke-width="1" stroke-opacity="0"></use></g></g><g><use xlink:href="#b3lqtizDxI" opacity="1" fill="#ffbd49" fill-opacity="1"></use><g><use xlink:href="#b3lqtizDxI" opacity="1" fill-opacity="0" stroke="#000000" stroke-width="1" stroke-opacity="0"></use></g></g><g><use xlink:href="#a1leGwpVwn" opacity="1" fill="#ffbd49" fill-opacity="1"></use><g><use xlink:href="#a1leGwpVwn" opacity="1" fill-opacity="0" stroke="#000000" stroke-width="1" stroke-opacity="0"></use></g></g><g><use xlink:href="#caAuWHfnA" opacity="1" fill="#454545" fill-opacity="1"></use><g><use xlink:href="#caAuWHfnA" opacity="1" fill-opacity="0" stroke="#000000" stroke-width="1" stroke-opacity="0"></use></g></g></g></g></svg>